<svg width="230" height="40" viewBox="0 0 230 40" fill="none" xmlns="http://www.w3.org/2000/svg">
<g clip-path="url(#clip0_1834_4594)">
<path d="M29.5479 33.0959C35.6407 27.0031 35.6407 17.1248 29.5479 11.032C23.4551 4.93922 13.5768 4.93922 7.48399 11.032C1.3912 17.1248 1.3912 27.0031 7.48399 33.0959C13.5768 39.1887 23.4551 39.1887 29.5479 33.0959Z" fill="#ECE9FF"/>
<path d="M6.02223 10.6895C6.02223 11.4046 5.45763 11.9692 4.74248 11.9692C4.02732 11.9692 3.46272 11.4046 3.46272 10.6895C3.46272 9.97433 4.02732 9.40973 4.74248 9.40973C5.45763 9.40973 6.02223 9.99315 6.02223 10.6895Z" fill="#ECE9FF"/>
<path d="M34.3654 32.2006C35.0721 32.2006 35.6451 31.6277 35.6451 30.9209C35.6451 30.2141 35.0721 29.6411 34.3654 29.6411C33.6586 29.6411 33.0856 30.2141 33.0856 30.9209C33.0856 31.6277 33.6586 32.2006 34.3654 32.2006Z" fill="#ECE9FF"/>
<path d="M7.77265 9.20281C8.11565 9.20281 8.3937 8.92475 8.3937 8.58175C8.3937 8.23875 8.11565 7.96069 7.77265 7.96069C7.42965 7.96069 7.15159 8.23875 7.15159 8.58175C7.15159 8.92475 7.42965 9.20281 7.77265 9.20281Z" fill="#ECE9FF"/>
<path d="M4.08397 30.6387C4.08397 30.9775 3.80167 31.2598 3.46291 31.2598C3.12416 31.2598 2.84186 30.9775 2.84186 30.6387C2.84186 30.2999 3.12416 30.0176 3.46291 30.0176C3.80167 30.0176 4.08397 30.2811 4.08397 30.6387Z" fill="#ECE9FF"/>
<path d="M34.1393 13.6065C34.1393 13.9453 33.857 14.2276 33.5183 14.2276C33.1795 14.2276 32.8972 13.9453 32.8972 13.6065C32.8972 13.2678 33.1795 12.9855 33.5183 12.9855C33.857 12.9855 34.1393 13.2678 34.1393 13.6065Z" fill="#ECE9FF"/>
<path d="M34.7415 34.1955C34.7415 34.5343 34.4592 34.8166 34.1204 34.8166C33.7817 34.8166 33.4994 34.5343 33.4994 34.1955C33.4994 33.8568 33.7817 33.5745 34.1204 33.5745C34.478 33.5745 34.7415 33.8568 34.7415 34.1955Z" fill="#ECE9FF"/>
<path d="M18.9705 5.81523C19.3135 5.81523 19.5916 5.53718 19.5916 5.19418C19.5916 4.85118 19.3135 4.57312 18.9705 4.57312C18.6275 4.57312 18.3495 4.85118 18.3495 5.19418C18.3495 5.53718 18.6275 5.81523 18.9705 5.81523Z" fill="#ECE9FF"/>
<path d="M27.1573 37.5455C27.6043 37.5455 27.9666 37.1832 27.9666 36.7363C27.9666 36.2893 27.6043 35.927 27.1573 35.927C26.7104 35.927 26.3481 36.2893 26.3481 36.7363C26.3481 37.1832 26.7104 37.5455 27.1573 37.5455Z" fill="#ECE9FF"/>
<path d="M12.8163 11.2729C12.6657 11.2729 12.5528 11.1599 12.5528 11.0094V8.12993C12.5528 5.23166 14.9053 2.86035 17.8224 2.86035C20.7206 2.86035 23.0919 5.21284 23.0919 8.12993V9.44732C23.0919 9.59788 22.979 9.7108 22.8285 9.7108C22.6779 9.7108 22.565 9.59788 22.565 9.44732V8.12993C22.565 5.51396 20.4383 3.38731 17.8224 3.38731C15.2064 3.38731 13.0797 5.51396 13.0797 8.12993V11.0282C13.0797 11.1599 12.9668 11.2729 12.8163 11.2729Z" fill="#FFD98D"/>
<path d="M28.3614 9.99323H8.69462C7.88537 9.99323 7.18903 10.6143 7.11375 11.4235L4.74244 33.6498C4.64834 34.5908 5.38232 35.4189 6.32332 35.4189H30.7139C31.6549 35.4189 32.3889 34.5908 32.2948 33.6498L29.9423 11.4235C29.8482 10.6143 29.1707 9.99323 28.3614 9.99323Z" fill="#4E7AEA"/>
<path d="M12.8162 33.6498L10.4449 11.4235C10.3508 10.6143 9.67326 9.99323 8.864 9.99323H8.69462C7.88537 9.99323 7.18903 10.6143 7.11375 11.4235L4.74244 33.6498C4.64834 34.5908 5.38232 35.4189 6.32332 35.4189H11.2165C12.1763 35.4189 12.9103 34.5908 12.8162 33.6498Z" fill="#26509E"/>
<path d="M23.5247 35.4188H21.5863L19.2714 13.6066H21.2099L23.5247 35.4188Z" fill="#26509E"/>
<path d="M20.796 14.6229C20.796 14.8487 20.6078 15.0369 20.3819 15.0369C20.1561 15.0369 19.9679 14.8487 19.9679 14.6229C19.9679 14.3971 20.1561 14.2089 20.3819 14.2089C20.6078 14.2089 20.796 14.4159 20.796 14.6229Z" fill="white"/>
<path d="M21.7745 24.0893C21.7745 24.3152 21.5863 24.5034 21.3605 24.5034C21.1347 24.5034 20.9465 24.3152 20.9465 24.0893C20.9465 23.8635 21.1347 23.6753 21.3605 23.6753C21.5863 23.6753 21.7745 23.8635 21.7745 24.0893Z" fill="white"/>
<path d="M22.772 33.537C22.772 33.7628 22.5838 33.951 22.358 33.951C22.1321 33.951 21.9439 33.7628 21.9439 33.537C21.9439 33.3111 22.1321 33.1229 22.358 33.1229C22.5838 33.1229 22.772 33.3111 22.772 33.537Z" fill="white"/>
<path d="M29.2272 22.019H24.2023L24.0705 20.7581H29.0955L29.2272 22.019Z" fill="#26509E"/>
<path d="M8.88296 10.2002H8.67594V33.5369H8.88296V10.2002Z" fill="#4E7AEA"/>
<path d="M14.0772 8.80746L13.268 9.99311L16.8814 15.7896L20.269 13.5877L15.5263 8.12994H15.3193C14.8488 8.14876 14.3595 8.39342 14.0772 8.80746Z" fill="#26509E"/>
<path d="M24.748 8.67572L25.6513 9.99311L23.6941 15.7896L20.3065 13.5877L23.2612 8.12994H23.7505C24.1269 8.14876 24.5033 8.33696 24.748 8.67572Z" fill="#26509E"/>
<path d="M15.1311 8.71334L20.2878 13.6065L23.9953 8.6757C24.1647 8.44986 23.9953 8.14874 23.7318 8.14874H15.3569C15.0558 8.14874 14.9241 8.52514 15.1311 8.71334Z" fill="#4E7AEA"/>
<path d="M21.0406 11.3858L20.9089 10.1061H18.9704L19.1022 11.4235C19.1022 11.4988 19.1775 11.574 19.2716 11.574H20.8901C20.9842 11.5552 21.0595 11.4799 21.0406 11.3858Z" fill="white"/>
<path d="M24.0705 9.99323H15.5263V10.2002H24.0705V9.99323Z" fill="#26509E"/>
<path d="M24.5787 9.91791C24.2964 9.91791 24.0705 10.1437 24.0705 10.426C24.0705 10.7083 24.2964 10.9342 24.5787 10.9342C24.861 10.9342 25.0868 10.7083 25.0868 10.426C25.0868 10.1437 24.861 9.91791 24.5787 9.91791Z" fill="#243C5E"/>
<path d="M14.5665 9.91791C14.2842 9.91791 14.0583 10.1437 14.0583 10.426C14.0583 10.7083 14.2842 10.9342 14.5665 10.9342C14.8488 10.9342 15.0746 10.7083 15.0746 10.426C15.0934 10.1437 14.8488 9.91791 14.5665 9.91791Z" fill="#243C5E"/>
<path d="M24.5789 10.6894C24.4283 10.6894 24.3154 10.5765 24.3154 10.426V8.12993C24.3154 5.51396 22.1888 3.38731 19.5728 3.38731C16.9568 3.38731 14.8302 5.51396 14.8302 8.12993V10.426C14.8302 10.5765 14.7173 10.6894 14.5667 10.6894C14.4161 10.6894 14.3032 10.5765 14.3032 10.426V8.12993C14.3032 5.23166 16.6557 2.86035 19.5728 2.86035C22.4899 2.86035 24.8424 5.21284 24.8424 8.12993V10.426C24.8424 10.5765 24.7295 10.6894 24.5789 10.6894Z" fill="#FFB600"/>
<path d="M8.77012 33.1793L5.32607 34.779C5.58955 35.0425 5.94713 35.1931 6.30471 35.1931H11.1979C11.5931 35.1931 11.9695 35.0237 12.233 34.7414C12.233 34.7226 12.2518 34.7226 12.2518 34.7037L8.77012 33.1793Z" fill="#4E7AEA"/>
<path d="M50.4731 15.2115L50.793 14.9805C51.1958 14.7435 51.4801 14.6251 51.646 14.6251C52.0133 14.6251 52.4102 14.9568 52.8367 15.6202C53.0973 16.0349 53.2276 16.3666 53.2276 16.6154C53.2276 16.8642 53.1447 17.0715 52.9788 17.2374C52.8248 17.4033 52.6412 17.5514 52.4279 17.6817C52.2147 17.812 52.0073 17.9364 51.8059 18.0549C51.6164 18.1733 51.2195 18.3274 50.6153 18.5169C50.0111 18.7065 49.4246 18.8012 48.856 18.8012C48.2991 18.8012 47.7305 18.7302 47.1499 18.588C46.5813 18.434 45.9889 18.1852 45.3728 17.8416C44.7686 17.4862 44.2237 17.0597 43.7379 16.5621C43.2522 16.0527 42.8494 15.407 42.5295 14.6251C42.2215 13.8313 42.0674 12.9724 42.0674 12.0483C42.0674 11.1242 42.2215 10.2889 42.5295 9.54257C42.8375 8.78434 43.2285 8.16236 43.7024 7.67662C44.1881 7.17903 44.739 6.76437 45.3551 6.43265C46.5161 5.79289 47.6831 5.47302 48.856 5.47302C49.4128 5.47302 49.9755 5.56187 50.5442 5.73958C51.1247 5.90544 51.5631 6.07723 51.8593 6.25494L52.2858 6.50373C52.499 6.63405 52.6649 6.74068 52.7833 6.82361C53.0914 7.0724 53.2454 7.35674 53.2454 7.67662C53.2454 7.98465 53.121 8.31045 52.8722 8.65402C52.4102 9.29377 51.9955 9.61365 51.6282 9.61365C51.415 9.61365 51.1129 9.48333 50.7219 9.22269C50.2243 8.81988 49.5609 8.61848 48.7316 8.61848C47.9615 8.61848 47.2033 8.88504 46.4569 9.41817C46.1015 9.67881 45.8053 10.0461 45.5683 10.52C45.3314 10.9939 45.2129 11.5329 45.2129 12.1371C45.2129 12.7295 45.3314 13.2626 45.5683 13.7365C45.8053 14.2104 46.1074 14.5836 46.4746 14.8561C47.1973 15.3774 47.9496 15.638 48.7316 15.638C49.0988 15.638 49.4424 15.5906 49.7623 15.4958C50.094 15.4011 50.3309 15.3063 50.4731 15.2115ZM54.3954 6.41488C54.3954 6.14239 54.4013 5.94098 54.4131 5.81066C54.4368 5.6685 54.4901 5.50856 54.5731 5.33085C54.7389 5.01097 55.201 4.85103 55.9592 4.85103C56.6819 4.85103 57.1321 5.01097 57.3098 5.33085C57.4046 5.50856 57.4579 5.6685 57.4697 5.81066C57.4934 5.95283 57.5053 6.16016 57.5053 6.43265V14.6606C57.5053 15.0871 57.5408 15.3596 57.6119 15.4781C57.683 15.5847 57.837 15.638 58.074 15.638C58.3227 15.638 58.4886 15.6499 58.5715 15.6736C58.6545 15.6854 58.7552 15.7328 58.8736 15.8157C59.1106 15.9697 59.2291 16.3903 59.2291 17.0775C59.2291 17.8238 59.1106 18.28 58.8736 18.4458C58.5656 18.6591 57.8311 18.6946 56.67 18.5525C55.7578 18.434 55.1654 18.1319 54.893 17.6461C54.5612 17.0656 54.3954 16.1415 54.3954 14.8739V6.41488ZM59.9425 13.9498C59.9425 12.5281 60.4401 11.3552 61.4353 10.4311C62.4305 9.50703 63.5678 9.04498 64.8473 9.04498C66.1268 9.04498 67.2583 9.50703 68.2416 10.4311C69.2249 11.3434 69.7166 12.5103 69.7166 13.932C69.7166 14.9153 69.4619 15.792 68.9524 16.5621C68.443 17.3203 67.821 17.8831 67.0865 18.2503C66.3638 18.6058 65.6115 18.7835 64.8296 18.7835C64.0476 18.7835 63.2894 18.5939 62.5549 18.2148C61.8203 17.8238 61.1984 17.2552 60.6889 16.5088C60.1913 15.7506 59.9425 14.8976 59.9425 13.9498ZM63.6567 15.2293C64.0358 15.5136 64.4208 15.6558 64.8118 15.6558C65.2028 15.6558 65.5937 15.5077 65.9847 15.2115C66.3756 14.9153 66.5711 14.477 66.5711 13.8965C66.5711 13.3159 66.3875 12.8835 66.0202 12.5992C65.653 12.3148 65.2561 12.1727 64.8296 12.1727C64.4031 12.1727 64.0062 12.3208 63.6389 12.6169C63.2716 12.9131 63.088 13.3515 63.088 13.932C63.088 14.5007 63.2776 14.9331 63.6567 15.2293ZM76.0424 12.4037L74.8872 12.3326V14.785C74.8872 15.1049 74.9346 15.3359 75.0294 15.4781C75.136 15.6202 75.3256 15.6913 75.5981 15.6913C75.8824 15.6913 76.0957 15.7032 76.2378 15.7269C76.3918 15.7387 76.5518 15.792 76.7176 15.8868C76.9901 16.0408 77.1264 16.4377 77.1264 17.0775C77.1264 17.8238 76.9605 18.28 76.6288 18.4458C76.4511 18.5288 76.2911 18.5821 76.149 18.6058C76.0187 18.6176 75.8232 18.6235 75.5625 18.6235C74.3304 18.6235 73.3945 18.3451 72.7547 17.7883C72.115 17.2315 71.7951 16.2896 71.7951 14.9627V12.3326C71.57 12.3682 71.3271 12.3859 71.0665 12.3859C70.8058 12.3859 70.5867 12.2852 70.409 12.0838C70.2431 11.8824 70.1602 11.5388 70.1602 11.0531C70.1602 10.5674 70.1898 10.2179 70.249 10.0046C70.3083 9.77951 70.3912 9.61958 70.4978 9.5248C70.6874 9.37078 70.9243 9.29377 71.2086 9.29377L71.7951 9.36486V7.53445C71.7951 7.26196 71.801 7.06056 71.8129 6.93024C71.8366 6.79991 71.8958 6.65775 71.9906 6.50373C72.1446 6.20755 72.6007 6.05946 73.3589 6.05946C74.1646 6.05946 74.6444 6.27863 74.7984 6.71698C74.8576 6.90654 74.8872 7.20865 74.8872 7.6233V9.36486C75.4085 9.31747 75.7995 9.29377 76.0601 9.29377C76.3326 9.29377 76.534 9.30562 76.6643 9.32932C76.8065 9.34116 76.9664 9.39448 77.1442 9.48926C77.4522 9.64327 77.6062 10.0994 77.6062 10.8576C77.6062 11.604 77.4463 12.0601 77.1264 12.226C76.9487 12.3089 76.7887 12.3622 76.6466 12.3859C76.5162 12.3978 76.3148 12.4037 76.0424 12.4037ZM83.7766 9.29377C84.9613 9.29377 85.9447 9.74397 86.7266 10.6444C87.5204 11.5448 87.9172 12.6466 87.9172 13.9498V17.0775C87.9172 17.3499 87.9054 17.5573 87.8817 17.6994C87.8699 17.8298 87.8165 17.9838 87.7218 18.1615C87.5678 18.4695 87.1116 18.6235 86.3534 18.6235C85.6307 18.6235 85.1805 18.4695 85.0028 18.1615C84.908 17.9838 84.8488 17.8238 84.8251 17.6817C84.8133 17.5395 84.8073 17.3263 84.8073 17.0419V13.932C84.8073 13.4463 84.6711 13.0671 84.3986 12.7947C84.1261 12.5222 83.7766 12.3859 83.3501 12.3859C82.9355 12.3859 82.5682 12.5162 82.2483 12.7769C81.9284 13.0257 81.7448 13.31 81.6974 13.6299V17.0775C81.6974 17.3499 81.6856 17.5573 81.6619 17.6994C81.65 17.8298 81.5967 17.9838 81.5019 18.1615C81.3479 18.4695 80.8918 18.6235 80.1336 18.6235C79.3872 18.6235 78.9311 18.4636 78.7652 18.1437C78.6823 17.966 78.629 17.812 78.6053 17.6817C78.5934 17.5514 78.5875 17.344 78.5875 17.0597V6.43265C78.5875 6.16016 78.5934 5.95876 78.6053 5.82844C78.629 5.68627 78.6823 5.53225 78.7652 5.36639C78.9311 5.04651 79.3931 4.88657 80.1513 4.88657C80.8977 4.88657 81.3479 5.04651 81.5019 5.36639C81.5967 5.5441 81.65 5.70404 81.6619 5.84621C81.6856 5.97653 81.6974 6.17793 81.6974 6.45042V10.3778C82.2898 9.65512 82.9828 9.29377 83.7766 9.29377ZM89.3473 10.8221C89.3473 10.5496 89.3532 10.3482 89.365 10.2179C89.3887 10.0757 89.442 9.91576 89.525 9.73805C89.6908 9.43002 90.1529 9.276 90.9111 9.276C91.4798 9.276 91.8826 9.37671 92.1195 9.57811C92.3209 9.74397 92.4276 9.99869 92.4394 10.3423C92.4513 10.4607 92.4572 10.6325 92.4572 10.8576V17.0775C92.4572 17.3499 92.4453 17.5573 92.4216 17.6994C92.4098 17.8298 92.3565 17.9838 92.2617 18.1615C92.1077 18.4695 91.6516 18.6235 90.8933 18.6235C90.147 18.6235 89.6908 18.4636 89.525 18.1437C89.442 17.966 89.3887 17.812 89.365 17.6817C89.3532 17.5514 89.3473 17.344 89.3473 17.0597V10.8221ZM92.2617 7.53445C92.1788 7.70031 92.0247 7.81878 91.7997 7.88987C91.5746 7.96095 91.2724 7.99649 90.8933 7.99649C90.5261 7.99649 90.2299 7.96095 90.0048 7.88987C89.7797 7.81878 89.6197 7.69439 89.525 7.51668C89.442 7.33897 89.3887 7.18495 89.365 7.05463C89.3532 6.91246 89.3473 6.70514 89.3473 6.43265C89.3473 6.16016 89.3532 5.95876 89.365 5.82844C89.3887 5.68627 89.442 5.53225 89.525 5.36639C89.6908 5.04651 90.1529 4.88657 90.9111 4.88657C91.6575 4.88657 92.1077 5.04651 92.2617 5.36639C92.3565 5.5441 92.4098 5.70404 92.4216 5.84621C92.4453 5.97653 92.4572 6.17793 92.4572 6.45042C92.4572 6.72291 92.4453 6.93024 92.4216 7.0724C92.4098 7.20272 92.3565 7.35674 92.2617 7.53445ZM99.0837 9.25823C100.268 9.25823 101.252 9.71435 102.034 10.6266C102.827 11.527 103.224 12.6288 103.224 13.932V17.0597C103.224 17.3322 103.212 17.5395 103.189 17.6817C103.177 17.812 103.13 17.9601 103.047 18.1259C102.881 18.4458 102.419 18.6058 101.66 18.6058C100.819 18.6058 100.334 18.3866 100.203 17.9482C100.132 17.7468 100.097 17.4447 100.097 17.0419V13.9142C100.097 13.4285 99.9544 13.0494 99.6701 12.7769C99.3976 12.5044 99.0244 12.3682 98.5505 12.3682C98.0885 12.3682 97.7094 12.5103 97.4132 12.7947C97.1289 13.079 96.9867 13.4522 96.9867 13.9142V17.0597C96.9867 17.3322 96.9748 17.5395 96.9511 17.6817C96.9393 17.812 96.886 17.9601 96.7912 18.1259C96.6372 18.4458 96.1811 18.6058 95.4228 18.6058C94.6765 18.6058 94.2203 18.4458 94.0545 18.1259C93.9715 17.9482 93.9182 17.7942 93.8945 17.6639C93.8827 17.5217 93.8768 17.3144 93.8768 17.0419V10.751C93.8768 10.4904 93.8827 10.2949 93.8945 10.1646C93.9182 10.0224 93.9775 9.86837 94.0723 9.70251C94.2381 9.40632 94.6942 9.25823 95.4406 9.25823C96.1633 9.25823 96.6076 9.39448 96.7734 9.66697C96.8919 9.86837 96.9511 10.1112 96.9511 10.3956C96.9985 10.3126 97.1052 10.1942 97.271 10.0402C97.4369 9.88614 97.5968 9.76174 97.7508 9.66697C98.1537 9.39448 98.5979 9.25823 99.0837 9.25823ZM110.589 17.4507C110.139 18.043 109.422 18.3392 108.439 18.3392C107.456 18.3392 106.532 17.889 105.667 16.9886C104.814 16.0764 104.387 15.016 104.387 13.8076C104.387 12.5992 104.82 11.5388 105.685 10.6266C106.549 9.71435 107.497 9.25823 108.528 9.25823C108.931 9.25823 109.298 9.33524 109.63 9.48926C109.961 9.63142 110.187 9.76767 110.305 9.89799C110.435 10.0165 110.536 10.129 110.607 10.2356C110.643 9.90391 110.761 9.65512 110.963 9.48926C111.176 9.31155 111.513 9.22269 111.976 9.22269C112.438 9.22269 112.775 9.25823 112.988 9.32932C113.202 9.4004 113.35 9.5248 113.433 9.70251C113.528 9.86837 113.581 10.0165 113.593 10.1468C113.616 10.2771 113.628 10.4785 113.628 10.751V18.1082C113.628 19.4706 113.154 20.5665 112.207 21.3958C111.259 22.237 110.193 22.6575 109.008 22.6575C108.107 22.6575 107.248 22.4384 106.431 22C105.614 21.5617 105.205 21.1648 105.205 20.8094C105.205 20.3473 105.383 19.9386 105.738 19.5832C105.963 19.3344 106.135 19.1626 106.253 19.0678C106.384 18.973 106.532 18.9256 106.698 18.9256C106.863 18.9256 107.035 18.9967 107.213 19.1389C107.782 19.5772 108.398 19.7964 109.061 19.7964C109.511 19.7964 109.879 19.6187 110.163 19.2633C110.447 18.9079 110.589 18.4814 110.589 17.9838V17.4507ZM107.426 13.8254C107.426 14.2045 107.574 14.5481 107.87 14.8561C108.178 15.1641 108.546 15.3181 108.972 15.3181C109.411 15.3181 109.772 15.1641 110.056 14.8561C110.341 14.5362 110.483 14.1926 110.483 13.8254C110.483 13.4463 110.347 13.0968 110.074 12.7769C109.802 12.4452 109.434 12.2793 108.972 12.2793C108.51 12.2793 108.137 12.4392 107.853 12.7591C107.568 13.079 107.426 13.4344 107.426 13.8254Z" fill="#FFB600"/>
<path d="M42.4051 33.9192C42.18 33.777 42.0674 33.5519 42.0674 33.2439C42.0674 32.9358 42.2925 32.4679 42.7427 31.84C42.8731 31.6386 43.0804 31.5378 43.3647 31.5378C43.6609 31.5378 44.0578 31.6859 44.5554 31.9821C45.053 32.2665 45.5032 32.4086 45.906 32.4086C46.6287 32.4086 46.99 32.2665 46.99 31.9821C46.99 31.757 46.5931 31.5912 45.7994 31.4845C45.053 31.3779 44.3125 31.0995 43.578 30.6493C43.2344 30.436 42.9501 30.1043 42.725 29.6541C42.4999 29.1921 42.3873 28.6471 42.3873 28.0192C42.3873 26.1473 43.6728 25.2114 46.2436 25.2114C47.0848 25.2114 47.9496 25.4128 48.8382 25.8156C49.2528 26.0052 49.4602 26.2421 49.4602 26.5264C49.4602 26.8108 49.3299 27.1603 49.0692 27.5749C48.8086 27.9896 48.542 28.1969 48.2695 28.1969C48.1273 28.1969 47.8608 28.1081 47.4698 27.9303C47.0907 27.7526 46.6761 27.6638 46.2259 27.6638C45.5269 27.6638 45.1774 27.7941 45.1774 28.0547C45.1774 28.4102 45.5802 28.6412 46.3858 28.7478C47.1677 28.8307 47.9259 29.0558 48.6605 29.4231C49.004 29.589 49.2884 29.8792 49.5135 30.2939C49.7504 30.6967 49.8689 31.2061 49.8689 31.8222C49.8689 32.4382 49.7504 32.9654 49.5135 33.4038C49.2884 33.8303 48.9685 34.1502 48.5539 34.3634C47.7956 34.7307 46.8419 34.9143 45.6927 34.9143C44.5554 34.9143 43.4595 34.5826 42.4051 33.9192ZM56.1888 28.5346L55.0337 28.4635V30.9159C55.0337 31.2357 55.0811 31.4668 55.1759 31.6089C55.2825 31.7511 55.4721 31.8222 55.7446 31.8222C56.0289 31.8222 56.2422 31.834 56.3843 31.8577C56.5383 31.8696 56.6983 31.9229 56.8641 32.0177C57.1366 32.1717 57.2729 32.5686 57.2729 33.2083C57.2729 33.9547 57.107 34.4108 56.7753 34.5767C56.5976 34.6596 56.4376 34.7129 56.2955 34.7366C56.1651 34.7485 55.9697 34.7544 55.709 34.7544C54.4769 34.7544 53.541 34.476 52.9012 33.9192C52.2615 33.3623 51.9416 32.4205 51.9416 31.0936V28.4635C51.7165 28.499 51.4736 28.5168 51.213 28.5168C50.9523 28.5168 50.7332 28.4161 50.5554 28.2147C50.3896 28.0133 50.3067 27.6697 50.3067 27.184C50.3067 26.6982 50.3363 26.3487 50.3955 26.1355C50.4547 25.9104 50.5377 25.7504 50.6443 25.6557C50.8339 25.5016 51.0708 25.4246 51.3551 25.4246L51.9416 25.4957V23.6653C51.9416 23.3928 51.9475 23.1914 51.9594 23.0611C51.983 22.9308 52.0423 22.7886 52.1371 22.6346C52.2911 22.3384 52.7472 22.1903 53.5054 22.1903C54.311 22.1903 54.7909 22.4095 54.9449 22.8478C55.0041 23.0374 55.0337 23.3395 55.0337 23.7542V25.4957C55.555 25.4483 55.946 25.4246 56.2066 25.4246C56.4791 25.4246 56.6805 25.4365 56.8108 25.4602C56.953 25.472 57.1129 25.5253 57.2906 25.6201C57.5987 25.7741 57.7527 26.2303 57.7527 26.9885C57.7527 27.7349 57.5928 28.191 57.2729 28.3568C57.0952 28.4398 56.9352 28.4931 56.7931 28.5168C56.6627 28.5286 56.4613 28.5346 56.1888 28.5346ZM58.4674 30.0806C58.4674 28.659 58.965 27.4861 59.9602 26.562C60.9554 25.6379 62.0927 25.1758 63.3722 25.1758C64.6517 25.1758 65.7831 25.6379 66.7665 26.562C67.7498 27.4742 68.2415 28.6412 68.2415 30.0629C68.2415 31.0462 67.9867 31.9229 67.4773 32.693C66.9679 33.4512 66.3459 34.0139 65.6113 34.3812C64.8887 34.7366 64.1364 34.9143 63.3544 34.9143C62.5725 34.9143 61.8143 34.7248 61.0797 34.3457C60.3452 33.9547 59.7232 33.386 59.2138 32.6396C58.7162 31.8814 58.4674 31.0284 58.4674 30.0806ZM62.1815 31.3601C62.5607 31.6445 62.9457 31.7866 63.3367 31.7866C63.7276 31.7866 64.1186 31.6386 64.5095 31.3424C64.9005 31.0462 65.096 30.6078 65.096 30.0273C65.096 29.4468 64.9124 29.0144 64.5451 28.73C64.1778 28.4457 63.7809 28.3035 63.3544 28.3035C62.9279 28.3035 62.531 28.4516 62.1638 28.7478C61.7965 29.044 61.6129 29.4823 61.6129 30.0629C61.6129 30.6315 61.8024 31.064 62.1815 31.3601ZM75.7516 25.4957C75.9767 25.5668 76.1604 25.6912 76.3025 25.8689C76.4565 26.0348 76.5336 26.3073 76.5336 26.6864C76.5336 27.0655 76.421 27.4801 76.1959 27.9303C75.9708 28.3805 75.645 28.6056 75.2185 28.6056C75.0052 28.6056 74.7979 28.5582 74.5965 28.4635C74.407 28.3687 74.1522 28.3213 73.8324 28.3213C73.5125 28.3213 73.2104 28.4339 72.926 28.659C72.6536 28.8841 72.5173 29.1565 72.5173 29.4764V33.2083C72.5173 33.4808 72.5055 33.6881 72.4818 33.8303C72.4699 33.9606 72.4166 34.1146 72.3218 34.2923C72.1441 34.6004 71.6821 34.7544 70.9357 34.7544C70.367 34.7544 69.9583 34.6537 69.7095 34.4523C69.5199 34.2864 69.4133 34.0317 69.3896 33.6881C69.3896 33.5697 69.3896 33.3979 69.3896 33.1728V26.9352C69.3896 26.6627 69.3955 26.4613 69.4074 26.331C69.4311 26.1888 69.4844 26.0348 69.5673 25.8689C69.7332 25.549 70.1952 25.3891 70.9535 25.3891C71.6643 25.3891 72.1086 25.5253 72.2863 25.7978C72.4166 25.9874 72.4818 26.1829 72.4818 26.3843C72.541 26.3013 72.6239 26.2006 72.7306 26.0822C72.849 25.9637 73.0919 25.8037 73.4592 25.6023C73.8264 25.4009 74.1463 25.3002 74.4188 25.3002C74.7031 25.3002 74.9401 25.318 75.1296 25.3535C75.3192 25.3772 75.5265 25.4246 75.7516 25.4957ZM86.0012 28.9611C86.0012 29.6837 85.8175 30.2228 85.4503 30.5782C85.0949 30.9218 84.698 31.0936 84.2596 31.0936H80.0479C80.0479 31.4253 80.2434 31.7037 80.6343 31.9288C81.0253 32.1539 81.4163 32.2665 81.8072 32.2665C82.4944 32.2665 83.0334 32.1954 83.4244 32.0532L83.6199 31.9821C83.9042 31.8518 84.1411 31.7866 84.3307 31.7866C84.7098 31.7866 85.0356 32.0532 85.3081 32.5863C85.4621 32.9062 85.5391 33.1787 85.5391 33.4038C85.5391 34.4582 84.2774 34.9854 81.7539 34.9854C80.8772 34.9854 80.0953 34.8373 79.4081 34.5411C78.7328 34.2331 78.2056 33.8303 77.8265 33.3327C77.0801 32.3731 76.707 31.3009 76.707 30.1162C76.707 28.6234 77.1868 27.4328 78.1464 26.5442C79.1179 25.6438 80.3263 25.1936 81.7717 25.1936C83.4185 25.1936 84.6269 25.7741 85.397 26.9352C85.7998 27.5512 86.0012 28.2265 86.0012 28.9611ZM82.2515 29.4764C82.7017 29.4764 82.9268 29.2869 82.9268 28.9077C82.9268 28.6353 82.8202 28.4161 82.6069 28.2502C82.4055 28.0844 82.1093 28.0014 81.7184 28.0014C81.3393 28.0014 80.9601 28.1614 80.581 28.4812C80.2019 28.7893 80.0124 29.121 80.0124 29.4764H82.2515Z" fill="#3459A7"/>
</g>
<defs>
<clipPath id="clip0_1834_4594">
<rect width="149" height="40" fill="white"/>
</clipPath>
</defs>
</svg>
